<svg viewBox="0 0 1433 400" xmlns="http://www.w3.org/2000/svg"><g><g><g><g><g><line x1="50" y1="377" x2="45" y2="377" style="visibility: inherit;" fill="rgb(0, 0, 0)" stroke="rgb(204, 204, 204)" stroke-width="1px"></line><line x1="50" y1="335.1111111111111" x2="45" y2="335.1111111111111" style="visibility: inherit;" fill="rgb(0, 0, 0)" stroke="rgb(204, 204, 204)" stroke-width="1px"></line><line x1="50" y1="293.22222222222223" x2="45" y2="293.22222222222223" style="visibility: inherit;" fill="rgb(0, 0, 0)" stroke="rgb(204, 204, 204)" stroke-width="1px"></line><line x1="50" y1="251.33333333333334" x2="45" y2="251.33333333333334" style="visibility: inherit;" fill="rgb(0, 0, 0)" stroke="rgb(204, 204, 204)" stroke-width="1px"></line><line x1="50" y1="209.44444444444446" x2="45" y2="209.44444444444446" style="visibility: inherit;" fill="rgb(0, 0, 0)" stroke="rgb(204, 204, 204)" stroke-width="1px"></line><line x1="50" y1="167.55555555555554" x2="45" y2="167.55555555555554" style="visibility: inherit;" fill="rgb(0, 0, 0)" stroke="rgb(204, 204, 204)" stroke-width="1px"></line><line x1="50" y1="125.66666666666669" x2="45" y2="125.66666666666669" style="visibility: inherit;" fill="rgb(0, 0, 0)" stroke="rgb(204, 204, 204)" stroke-width="1px"></line><line x1="50" y1="83.77777777777777" x2="45" y2="83.77777777777777" style="visibility: inherit;" fill="rgb(0, 0, 0)" stroke="rgb(204, 204, 204)" stroke-width="1px"></line><line x1="50" y1="41.888888888888914" x2="45" y2="41.888888888888914" style="visibility: inherit;" fill="rgb(0, 0, 0)" stroke="rgb(204, 204, 204)" stroke-width="1px"></line><line x1="50" y1="0" x2="45" y2="0" style="visibility: inherit;" fill="rgb(0, 0, 0)" stroke="rgb(204, 204, 204)" stroke-width="1px"></line></g><g transform="translate(40, 0)"><text x="0" y="377" dx="0em" dy="0.3em" style="text-anchor: end; visibility: hidden; font-family: &quot;Helvetica Neue&quot;, sans-serif; font-size: 12px; font-weight: 200;" fill="rgb(33, 33, 33)" stroke="none" stroke-width="1px">-0.5</text><text x="0" y="335.1111111111111" dx="0em" dy="0.3em" style="text-anchor: end; visibility: inherit; font-family: &quot;Helvetica Neue&quot;, sans-serif; font-size: 12px; font-weight: 200;" fill="rgb(33, 33, 33)" stroke="none" stroke-width="1px">0</text><text x="0" y="293.22222222222223" dx="0em" dy="0.3em" style="text-anchor: end; visibility: inherit; font-family: &quot;Helvetica Neue&quot;, sans-serif; font-size: 12px; font-weight: 200;" fill="rgb(33, 33, 33)" stroke="none" stroke-width="1px">0.5</text><text x="0" y="251.33333333333334" dx="0em" dy="0.3em" style="text-anchor: end; visibility: inherit; font-family: &quot;Helvetica Neue&quot;, sans-serif; font-size: 12px; font-weight: 200;" fill="rgb(33, 33, 33)" stroke="none" stroke-width="1px">1</text><text x="0" y="209.44444444444446" dx="0em" dy="0.3em" style="text-anchor: end; visibility: inherit; font-family: &quot;Helvetica Neue&quot;, sans-serif; font-size: 12px; font-weight: 200;" fill="rgb(33, 33, 33)" stroke="none" stroke-width="1px">1.5</text><text x="0" y="167.55555555555554" dx="0em" dy="0.3em" style="text-anchor: end; visibility: inherit; font-family: &quot;Helvetica Neue&quot;, sans-serif; font-size: 12px; font-weight: 200;" fill="rgb(33, 33, 33)" stroke="none" stroke-width="1px">2</text><text x="0" y="125.66666666666669" dx="0em" dy="0.3em" style="text-anchor: end; visibility: inherit; font-family: &quot;Helvetica Neue&quot;, sans-serif; font-size: 12px; font-weight: 200;" fill="rgb(33, 33, 33)" stroke="none" stroke-width="1px">2.5</text><text x="0" y="83.77777777777777" dx="0em" dy="0.3em" style="text-anchor: end; visibility: inherit; font-family: &quot;Helvetica Neue&quot;, sans-serif; font-size: 12px; font-weight: 200;" fill="rgb(33, 33, 33)" stroke="none" stroke-width="1px">3</text><text x="0" y="41.888888888888914" dx="0em" dy="0.3em" style="text-anchor: end; visibility: inherit; font-family: &quot;Helvetica Neue&quot;, sans-serif; font-size: 12px; font-weight: 200;" fill="rgb(33, 33, 33)" stroke="none" stroke-width="1px">3.5</text><text x="0" y="0" dx="0em" dy="0.3em" style="text-anchor: end; visibility: hidden; font-family: &quot;Helvetica Neue&quot;, sans-serif; font-size: 12px; font-weight: 200;" fill="rgb(33, 33, 33)" stroke="none" stroke-width="1px">4</text></g><line x1="50" y1="0" x2="50" y2="377" fill="rgb(0, 0, 0)" stroke="rgb(204, 204, 204)" stroke-width="1px"></line></g></g><g transform="translate(50, 0)" clip-path="url(#clip_0)"><clipPath id="clip_0"><rect width="1383" height="377"></rect></clipPath><g><g><g><line x1="0" y1="0" x2="0" y2="377" fill="rgb(0, 0, 0)" stroke="rgb(66, 66, 66)" stroke-width="1px" opacity="0.25"></line><line x1="115.25" y1="0" x2="115.25" y2="377" fill="rgb(0, 0, 0)" stroke="rgb(66, 66, 66)" stroke-width="1px" opacity="0.25"></line><line x1="230.5" y1="0" x2="230.5" y2="377" fill="rgb(0, 0, 0)" stroke="rgb(66, 66, 66)" stroke-width="1px" opacity="0.25"></line><line x1="345.75" y1="0" x2="345.75" y2="377" fill="rgb(0, 0, 0)" stroke="rgb(66, 66, 66)" stroke-width="1px" opacity="0.25"></line><line x1="461" y1="0" x2="461" y2="377" fill="rgb(0, 0, 0)" stroke="rgb(66, 66, 66)" stroke-width="1px" opacity="0.25"></line><line x1="576.25" y1="0" x2="576.25" y2="377" fill="rgb(0, 0, 0)" stroke="rgb(66, 66, 66)" stroke-width="1px" opacity="0.25"></line><line x1="691.5" y1="0" x2="691.5" y2="377" fill="rgb(0, 0, 0)" stroke="rgb(66, 66, 66)" stroke-width="1px" opacity="0.25"></line><line x1="806.75" y1="0" x2="806.75" y2="377" fill="rgb(0, 0, 0)" stroke="rgb(66, 66, 66)" stroke-width="1px" opacity="0.25"></line><line x1="922" y1="0" x2="922" y2="377" fill="rgb(0, 0, 0)" stroke="rgb(66, 66, 66)" stroke-width="1px" opacity="0.25"></line><line x1="1037.25" y1="0" x2="1037.25" y2="377" fill="rgb(0, 0, 0)" stroke="rgb(66, 66, 66)" stroke-width="1px" opacity="0.25"></line><line x1="1152.5" y1="0" x2="1152.5" y2="377" fill="rgb(0, 0, 0)" stroke="rgb(66, 66, 66)" stroke-width="1px" opacity="0.25"></line><line x1="1267.75" y1="0" x2="1267.75" y2="377" fill="rgb(0, 0, 0)" stroke="rgb(66, 66, 66)" stroke-width="1px" opacity="0.25"></line><line x1="1383" y1="0" x2="1383" y2="377" fill="rgb(0, 0, 0)" stroke="rgb(66, 66, 66)" stroke-width="1px" opacity="0.25"></line></g><g><line x1="0" y1="377" x2="1383" y2="377" fill="rgb(0, 0, 0)" stroke="rgb(66, 66, 66)" stroke-width="1px" opacity="0.25"></line><line x1="0" y1="335.1111111111111" x2="1383" y2="335.1111111111111" fill="rgb(0, 0, 0)" stroke="rgb(66, 66, 66)" stroke-width="1px" opacity="0.25"></line><line x1="0" y1="293.22222222222223" x2="1383" y2="293.22222222222223" fill="rgb(0, 0, 0)" stroke="rgb(66, 66, 66)" stroke-width="1px" opacity="0.25"></line><line x1="0" y1="251.33333333333334" x2="1383" y2="251.33333333333334" fill="rgb(0, 0, 0)" stroke="rgb(66, 66, 66)" stroke-width="1px" opacity="0.25"></line><line x1="0" y1="209.44444444444446" x2="1383" y2="209.44444444444446" fill="rgb(0, 0, 0)" stroke="rgb(66, 66, 66)" stroke-width="1px" opacity="0.25"></line><line x1="0" y1="167.55555555555554" x2="1383" y2="167.55555555555554" fill="rgb(0, 0, 0)" stroke="rgb(66, 66, 66)" stroke-width="1px" opacity="0.25"></line><line x1="0" y1="125.66666666666669" x2="1383" y2="125.66666666666669" fill="rgb(0, 0, 0)" stroke="rgb(66, 66, 66)" stroke-width="1px" opacity="0.25"></line><line x1="0" y1="83.77777777777777" x2="1383" y2="83.77777777777777" fill="rgb(0, 0, 0)" stroke="rgb(66, 66, 66)" stroke-width="1px" opacity="0.25"></line><line x1="0" y1="41.888888888888914" x2="1383" y2="41.888888888888914" fill="rgb(0, 0, 0)" stroke="rgb(66, 66, 66)" stroke-width="1px" opacity="0.25"></line><line x1="0" y1="0" x2="1383" y2="0" fill="rgb(0, 0, 0)" stroke="rgb(66, 66, 66)" stroke-width="1px" opacity="0.25"></line></g></g></g><g><g><line x1="0" y1="335.1111111111111" x2="1383" y2="335.1111111111111" fill="rgb(0, 0, 0)" stroke="rgb(153, 153, 153)" stroke-width="1.5px"></line></g></g><g><g><line x1="115.25" y1="0" x2="115.25" y2="377" fill="rgb(0, 0, 0)" stroke="rgb(153, 153, 153)" stroke-width="1.5px"></line></g></g><g><g><g><g><g><path stroke="rgb(204, 51, 17)" stroke-width="2px" d="M121.01249999999999,-8.225766287909664L126.77499999999999,2.891515106841325L132.53750000000002,11.207119549801178L138.3,23.900881952102964L144.0625,62.87014992033784L149.82500000000002,78.94900140252287L155.5875,88.6713903357923L161.35,87.80698583700382L167.1125,96.09737550508163L172.875,108.30781759935297L178.63750000000002,113.16295921427383L184.4,106.93092613212144L190.16250000000002,119.3140908568551L195.92499999999998,111.90343316294138L201.6875,107.6873507581846L207.45,139.83014181357987L213.2125,147.2027588352153L218.975,159.67403671945593L224.7375,149.7332146285603L230.5,162.81060848644634L236.26250000000002,146.24045927487896L242.02499999999998,140.23785596308582L247.7875,159.58617319443283L253.54999999999998,166.6229623978298L259.3125,170.5854262619258L265.07500000000005,170.69407091784157L270.8375,154.51382064890345L276.6,155.28353564797166L282.3625,174.85874022254185L288.125,185.17281796180382L293.8875,180.67092661976045L299.65000000000003,192.71616563848093L305.41249999999997,183.49730848208952L311.175,176.98003691915244L316.9375,211.26016836976987L322.7,236.56339975926036L328.4625,242.5854717124561L334.225,239.1088261809083L339.98749999999995,244.17718622206445L345.75,238.12191329978302L351.5125,228.92165430953526L357.27500000000003,227.71039267421148L363.0375,232.40167961490857L368.8,218.3483936571735L374.5625,244.18562119203298L380.32500000000005,238.50602427632046L386.08750000000003,224.66926802736177L391.84999999999997,249.45963664212437L397.61249999999995,256.78010079484307L403.375,262.171491701755L409.1375,261.2783506124641L414.9,262.9001706248208L420.66249999999997,260.1553149425369L426.425,249.0330825820855L432.1875,260.1700272399734L437.95,263.3395509411697L443.71250000000003,275.97111234405634L449.475,283.97535038527644L455.2375,270.38705463729315L461,277.28438117749056L466.76250000000005,243.48547986336428L472.52500000000003,260.80088314261116L478.28749999999997,280.86699950404625L484.04999999999995,296.34398878771003L489.8125,271.6501744047942L495.575,271.78630430370754L501.3375,263.894152268987L507.09999999999997,272.29885255939365L512.8625000000001,285.8527292177541L518.625,296.89566257721293L524.3874999999999,295.8519122151103L530.1500000000001,288.9217013301326L535.9125,291.9865614125256L541.675,286.87682420904184L547.4375,293.944145421222L553.2,303.6645739303904L558.9625,302.9652955614322L564.725,306.53704283995853L570.4875,296.66694898159693L576.25,295.3712729962418L582.0125,301.08028021100995L587.775,304.10283431728317L593.5374999999999,308.9764179546811L599.3000000000001,317.02219724279377L605.0625,313.38876149693834L610.8249999999999,313.25434557779454L616.5875000000001,315.62071218997534L622.35,315.77191963341016L628.1125,313.23854935097404L633.875,310.5465362518028L639.6375,309.88157997158476L645.4,290.15095285219996L651.1625,303.79985685533114L656.925,304.54360092114905L662.6875,309.7873369918158L668.45,319.11486307692536L674.2125,323.2450503602346L679.9749999999999,316.4161624382104L685.7375000000001,310.56034693208994L691.5,314.99906954883795L697.2624999999999,321.04986603258277L703.025,325.8569296002613L708.7874999999999,326.2163468453754L714.5500000000001,328.24566672862386L720.3125,330.2412833810431L726.075,312.2665791032396L731.8375,302.46026159166723L737.6,313.69891597566L743.3625,318.66703242900167L749.125,324.53547051140316L754.8874999999999,325.5795161679704L760.6500000000001,322.10296211771083L766.4125,316.88590139759066L772.1750000000001,317.4171885964025L777.9375,314.28138275974817L783.6999999999999,321.2594921776351L789.4625,320.0383739027597L795.2249999999999,323.01149484170116L800.9875000000001,323.7352508517595L806.75,328.0288063206601L812.5125,330.38141718160745L818.275,326.9082882694832L824.0375,328.882665935701L829.8,328.18480184157113L835.5625,327.5420889498888L841.3249999999999,329.39406771414076L847.0875000000001,328.7574874928086L852.85,327.68373243103025L858.6125000000001,328.00193794290647L864.375,326.49500487346376L870.1374999999999,329.5690615760885L875.9,328.94047423924616L881.6624999999999,326.38265635340116L887.4250000000001,321.59246261511794L893.1875,326.33868163267834L898.95,329.1568995712271L904.7125,322.7496898729446L910.475,325.83536604298206L916.2375,329.27351685242684L922,330.87647986984354L927.7624999999999,332.49858701230994L933.5250000000001,332.4324041260727L939.2875,333.4223903826527L945.0500000000001,333.84487464671247L950.8125,333.85902985164137L956.5749999999999,332.7952391191042L962.3375,330.73221487438315L968.0999999999999,332.07711853358194L973.8625000000001,332.7991700013197L979.625,331.21462332776815L985.3875,332.7556164828311L991.15,331.931518930901L996.9125,327.2380768105971L1002.675,329.9591910425013L1008.4375,331.3724707239116L1014.1999999999999,331.3180322273519L1019.9625000000001,332.66341424876134L1025.7250000000001,333.59776644205635L1031.4875,333.6018731654752L1037.25,333.5905834169826L1043.0125,334.1869147211391L1048.7749999999999,334.3989022543742L1054.5375,334.19085321433954L1060.3000000000002,334.01907735448316L1066.0625,334.29925575061384L1071.825,334.5938896526412L1077.5875,334.37309049669665L1083.35,334.1709846363689L1089.1125,334.24908676879954L1094.875,332.17340055852213L1100.6374999999998,332.57299134730744L1106.4,333.0119210278955L1112.1625000000001,331.5147180197219L1117.925,332.9484678747426L1123.6875,333.80826128219127L1129.45,333.91453961241643L1135.2124999999999,334.01509408545206L1140.975,332.51167665423645L1146.7375000000002,333.0145319038068L1152.5,333.77744690561235L1158.2625,334.2368110921312L1164.025,334.57763959113197L1169.7875,334.78972476058533L1175.55,334.91740145478036L1181.3125,334.9927410884937L1187.0749999999998,335.0396377489151L1192.8375,335.0671545451309L1198.6000000000001,335.00952592295545L1204.3625,335.0474683818094L1210.125,335.05914784973623L1215.8875,335.0782655550404L1221.6499999999999,335.0646174070226L1227.4125,335.0643272038119L1233.1750000000002,335.0810513857095L1238.9375,335.09167253796494L1244.7,335.09875295504344L1250.4625,334.50914818379596L1256.225,331.96211226052696L1261.9875,333.1942979719189" style="fill: none;" fill="none"></path></g><g><path stroke="rgb(0, 119, 187)" stroke-width="2px" d="M167.1125,-4.350020262703993L172.875,18.990083379437806L178.63750000000002,13.184865951826453L184.4,24.825988687403367L190.16250000000002,38.195027364867315L195.92499999999998,33.60190531128427L201.6875,32.78401815792432L207.45,44.9118359825938L213.2125,37.17791341851631L218.975,51.51772502362667L224.7375,61.57139891403705L230.5,79.49422548628229L236.26250000000002,81.46807974613046L242.02499999999998,73.74383758332482L247.7875,81.51909170890673L253.54999999999998,82.42979937832644L259.3125,68.3683134848747L265.07500000000005,95.08562837546191L270.8375,105.60571174708093L276.6,116.94433347399655L282.3625,124.3249654610108L288.125,134.74771528843857L293.8875,137.35453438354887L299.65000000000003,117.89997219086143L305.41249999999997,129.78036425996598L311.175,128.38095909097092L316.9375,130.04152393175943L322.7,144.9716023193591L328.4625,145.71963061690687L334.225,134.5687149145147L339.98749999999995,139.14595928540064L345.75,145.91967559718785L351.5125,162.12260929448524L357.27500000000003,153.24074300756442L363.0375,153.5841621649022L368.8,167.10656318822194L374.5625,151.60984940420843L380.32500000000005,156.88701930848725L386.08750000000003,155.60919431635298L391.84999999999997,175.42080109020074L397.61249999999995,184.50576738676156L403.375,178.52112635864336L409.1375,180.75423700547978L414.9,169.03802140977646L420.66249999999997,184.02828609934366L426.425,178.05260091087064L432.1875,167.28914908140328L437.95,167.21536880607397L443.71250000000003,154.60227676290424L449.475,169.52419628337037L455.2375,176.7215857258874L461,185.55513455710795L466.76250000000005,200.1316999092223L472.52500000000003,180.9473814610022L478.28749999999997,176.75752664135823L484.04999999999995,187.79889839804335L489.8125,203.61432446456323L495.575,211.80807085086727L501.3375,207.59278331150506L507.09999999999997,220.4586291535358L512.8625000000001,186.19107068653202L518.625,200.3774930991581L524.3874999999999,212.21655735453407L530.1500000000001,218.9702040948629L535.9125,204.24799840041953L541.675,203.54144125216575L547.4375,211.25335349328012L553.2,236.14152875687031L558.9625,233.79505152722737L564.725,232.0123457305861L570.4875,251.98825601563914L576.25,253.7582122077111L582.0125,258.3085863557529L587.775,255.84598977104588L593.5374999999999,249.74091795591636L599.3000000000001,258.2033458812853L605.0625,252.07706007410678L610.8249999999999,254.0837387041558L616.5875000000001,265.3435923666873L622.35,247.5740394201548L628.1125,232.8709999803705L633.875,244.57305843536076L639.6375,245.06052991425736L645.4,260.3180050757737L651.1625,255.75890416545934L656.925,256.487251843207L662.6875,255.88372158783915L668.45,255.6145013425113L674.2125,248.62303047630687L679.9749999999999,257.9509665749348L685.7375000000001,251.67196042032302" style="fill: none;" fill="none"></path></g></g></g></g><g opacity="0.2"><g><g><g><path stroke="rgb(204, 51, 17)" stroke-width="2px" d="M115.25,-29.950282308790406L121.01249999999999,4.808943324618895L126.77499999999999,13.564105245802125L132.53750000000002,20.986270374721926L138.3,40.47385814454822L144.0625,116.77867645687525L149.82500000000002,101.94201628367108L155.5875,102.84672673543292L161.35,86.53215710322064L167.1125,108.40763796700372L172.875,126.51273292965357L178.63750000000002,120.41925017038983L184.4,97.60322517818872L190.16250000000002,137.8645780351427L195.92499999999998,100.79615757200452L201.6875,101.36620065901013L207.45,188.0307266447279L213.2125,158.2598124610053L218.975,178.37905367215473L224.7375,134.8228901227315L230.5,182.42598207791644L236.26250000000002,121.38578070534601L242.02499999999998,131.23406950632733L247.7875,188.60841984219022L253.54999999999998,177.17809618843927L259.3125,176.52910515997144L265.07500000000005,170.85703762372333L270.8375,130.24347008599176L276.6,156.43810743755762L282.3625,204.2215362654792L288.125,200.6439311504364L293.8875,173.91809050242108L299.65000000000003,210.78402272860208L305.41249999999997,169.66902340783014L311.175,167.20412985483807L316.9375,262.6803646617466L322.7,274.5182464520136L328.4625,251.61857958634695L334.225,233.8938579029507L339.98749999999995,251.77972626686096L345.75,229.0390039285024L351.5125,215.1212658352322L357.27500000000003,225.89350022210016L363.0375,239.4386100239224L368.8,197.2684647242228L374.5625,282.9414624902937L380.32500000000005,229.98662890328302L386.08750000000003,203.91413365470038L391.84999999999997,286.64518956343335L397.61249999999995,267.7607970237732L403.375,270.2585780620575L409.1375,259.9386389785343L414.9,265.3329006433487L420.66249999999997,256.0380314191183L426.425,232.3497340414259L432.1875,276.8754442267948L437.95,268.0938364929623L443.71250000000003,294.9184544483821L449.475,295.981707447105L455.2375,250.00461101531982L461,287.6303709877862L466.76250000000005,192.7871278921763L472.52500000000003,286.7739880614811L478.28749999999997,310.96617404619855L484.04999999999995,319.55947271320554L489.8125,234.6094528304206L495.575,271.9904991520776L501.3375,252.05592421690622L507.09999999999997,284.9059029950036L512.8625000000001,306.1835442052947L518.625,313.4600626164013L524.3874999999999,294.28628667195636L530.1500000000001,278.5263850026661L535.9125,296.583851536115L541.675,279.2122184038162L547.4375,304.5451272394922L553.2,318.2452166941431L558.9625,301.91637800799475L564.725,311.89466375774805L570.4875,281.8618081940545L576.25,293.42775901820926L582.0125,309.643791033162L587.775,308.63666547669305L593.5374999999999,316.28679341077805L599.3000000000001,329.0908661749628L605.0625,307.93860787815515L610.8249999999999,313.05272169907886L616.5875000000001,319.1702621082465L622.35,315.99873079856235L628.1125,309.4384939273198L633.875,306.508516603046L639.6375,308.8841455512577L645.4,260.5550121731228L651.1625,324.27321286002797L656.925,305.6592170198758L662.6875,317.6529410978158L668.45,333.1061522045897L674.2125,329.4403312851985L679.9749999999999,306.1728305551741L685.7375000000001,301.7766236729092L691.5,321.65715347396L697.2624999999999,330.12606075819997L703.025,333.0675249517792L708.7874999999999,326.75547271304663L714.5500000000001,331.28964655349654L720.3125,333.23470835967197L726.075,285.3045226865345L731.8375,287.7507853243086L737.6,330.5568975516492L743.3625,326.1192071090142L749.125,333.33812763500543L754.8874999999999,327.14558465282124L760.6500000000001,316.8881310423215L766.4125,309.06031031741037L772.1750000000001,318.21411939462024L777.9375,309.57767400476666L783.6999999999999,331.7266563044654L789.4625,318.20669649044675L795.2249999999999,327.4711762501134L800.9875000000001,324.82088486684694L806.75,334.46913952401115L812.5125,333.9103334730284L818.275,321.6985949012968L824.0375,331.8442324350278L829.8,327.1380057003763L835.5625,326.5780196123653L841.3249999999999,332.17203586051863L847.0875000000001,327.80261716081037L852.85,326.0730998383628L858.6125000000001,328.4792462107208L864.375,324.2346052692996L870.1374999999999,334.18014663002555L875.9,327.99759323398274L881.6624999999999,322.5459295246336L887.4250000000001,314.4071720076932L893.1875,333.45801015901895L898.95,333.3842264790502L904.7125,313.1388753255208L910.475,330.4638802980383L916.2375,334.430743066594L922,333.2809243959685L927.7624999999999,334.9317477260095L933.5250000000001,332.3331297967169L939.2875,334.90736976752265L945.0500000000001,334.47860104280215L950.8125,333.88026265903477L956.5749999999999,331.1995530202985L962.3375,327.63767850730153L968.0999999999999,334.09447402238015L973.8625000000001,333.88224720292624L979.625,328.8378033174409L985.3875,335.06710621542555L991.15,330.6953726030058L996.9125,320.19791363014116L1002.675,334.0408623903576L1008.4375,333.49239024602707L1014.1999999999999,331.2363744825125L1019.9625000000001,334.68148728087544L1025.7250000000001,334.9992947319988L1031.4875,333.6080332506034L1037.25,333.57364879424375L1043.0125,335.08141167737386L1048.7749999999999,334.7168835542268L1054.5375,333.87877965428765L1060.3000000000002,333.76141356469856L1066.0625,334.71952334480983L1071.825,335.03584050568236L1077.5875,334.0418917627798L1083.35,333.86782584587735L1089.1125,334.36623996744555L1094.875,329.059871243106L1100.6374999999998,333.1723775304854L1106.4,333.6703155487776L1112.1625000000001,329.26891350746155L1117.925,335.0990926572736L1123.6875,335.09795139336427L1129.45,334.0739571077542L1135.2124999999999,334.1659257950054L1140.975,330.256550507413L1146.7375000000002,333.7688147781624L1152.5,334.92181940832074L1158.2625,334.92585737190933L1164.025,335.08888233963324L1169.7875,335.1078525147653L1175.55,335.108916496073L1181.3125,335.1057505390636L1187.0749999999998,335.10998273954726L1192.8375,335.10842973945466L1198.6000000000001,334.92308298969226L1204.3625,335.10438207009025L1210.125,335.07666705162654L1215.8875,335.1069421129966L1221.6499999999999,335.0441451849959L1227.4125,335.0638918989959L1233.1750000000002,335.1061376585559L1238.9375,335.10760426634806L1244.7,335.10937358066116L1250.4625,333.6247410269247L1256.225,328.1415583756235L1261.9875,335.0425765390068" style="fill: none;" fill="none"></path></g><g><path stroke="rgb(0, 119, 187)" stroke-width="2px" d="M149.82500000000002,-37.116338517930785L155.5875,4.802811251746277L161.35,0.9511504173278809L167.1125,8.953845077090818L172.875,53.78854582044812L178.63750000000002,4.508631547292055L184.4,42.2496625052558L190.16250000000002,58.22239404254492L195.92499999999998,26.7176212734646L201.6875,31.55776426527234L207.45,63.09843063354492L213.2125,25.57899321450128L218.975,73.02525790532428L224.7375,76.65099080403644L230.5,106.3774824142456L236.26250000000002,84.42879618538751L242.02499999999998,62.157626840803346L247.7875,93.181880791982L253.54999999999998,83.7958544095357L259.3125,47.276144610510926L265.07500000000005,135.16153234905664L270.8375,121.38582065370349L276.6,133.9522556198968L282.3625,135.39590936236914L288.125,150.3818365732829L293.8875,141.26476250754462L299.65000000000003,88.71813122431439L305.41249999999997,147.6009515126546L311.175,126.2818513976203L316.9375,132.53237115012274L322.7,167.36671966976587L328.4625,146.8416730562846L334.225,117.84234142303467L339.98749999999995,146.01182582643298L345.75,156.0802500512865L351.5125,186.4270098209381L357.27500000000003,139.91794358359442L363.0375,154.09929090076025L368.8,187.39016471968756L374.5625,128.36477873060437L380.32500000000005,164.80277416441174L386.08750000000003,153.69245682822333L391.84999999999997,205.13821125030518L397.61249999999995,198.1332168314192L403.375,169.5441648165385L409.1375,184.1039029757182L414.9,151.46369801627264L420.66249999999997,206.51368313365512L426.425,169.0890731281704L432.1875,151.14397133721246L437.95,167.10469839307996L443.71250000000003,135.68263869815405L449.475,191.90707556406656L455.2375,187.517669889662L461,198.8054578039381L466.76250000000005,221.9965479373932L472.52500000000003,152.17090378867255L478.28749999999997,170.47274441189234L484.04999999999995,204.3609560330709L489.8125,227.33746356434293L495.575,224.09869043032327L501.3375,201.26985200246176L507.09999999999997,239.7573979165819L512.8625000000001,134.78973298602637L518.625,221.65712671809726L524.3874999999999,229.975153737598L530.1500000000001,229.10067420535617L535.9125,182.16468985875446L541.675,202.48160552978516L547.4375,222.82122185495166L553.2,273.4737916522556L558.9625,230.275335682763L564.725,229.33828703562418L570.4875,281.95212144321863L576.25,256.4131464958191L582.0125,265.1341475778156L587.775,252.15209489398532L593.5374999999999,240.5833102332221L599.3000000000001,270.8969877693388L605.0625,242.8876313633389L610.8249999999999,257.09375664922925L616.5875000000001,282.2333728604847L622.35,220.91971000035605L628.1125,210.81644082069397L633.875,262.12614611784613L639.6375,245.79173713260226L645.4,283.2042178180483L651.1625,248.9202527999878L656.925,257.57977335982855L662.6875,254.97842620478735L668.45,255.21067097451953L674.2125,238.13582417700025L679.9749999999999,271.94287072287665L685.7375000000001,242.25345118840536" style="fill: none;" fill="none"></path></g></g></g></g></g><g><g><span fill="rgb(0, 0, 0)" stroke="none" stroke-width="1px">Alt + Scroll to Zoom</span></g></g></g><g transform="translate(50, 377)" clip-path="url(#clip_1)"><clipPath id="clip_1"><rect width="1383" height="23"></rect></clipPath><g><g><line x1="0" y1="0" x2="0" y2="5" style="visibility: inherit;" fill="rgb(0, 0, 0)" stroke="rgb(204, 204, 204)" stroke-width="1px"></line><line x1="115.25" y1="0" x2="115.25" y2="5" style="visibility: inherit;" fill="rgb(0, 0, 0)" stroke="rgb(204, 204, 204)" stroke-width="1px"></line><line x1="230.5" y1="0" x2="230.5" y2="5" style="visibility: inherit;" fill="rgb(0, 0, 0)" stroke="rgb(204, 204, 204)" stroke-width="1px"></line><line x1="345.75" y1="0" x2="345.75" y2="5" style="visibility: inherit;" fill="rgb(0, 0, 0)" stroke="rgb(204, 204, 204)" stroke-width="1px"></line><line x1="461" y1="0" x2="461" y2="5" style="visibility: inherit;" fill="rgb(0, 0, 0)" stroke="rgb(204, 204, 204)" stroke-width="1px"></line><line x1="576.25" y1="0" x2="576.25" y2="5" style="visibility: inherit;" fill="rgb(0, 0, 0)" stroke="rgb(204, 204, 204)" stroke-width="1px"></line><line x1="691.5" y1="0" x2="691.5" y2="5" style="visibility: inherit;" fill="rgb(0, 0, 0)" stroke="rgb(204, 204, 204)" stroke-width="1px"></line><line x1="806.75" y1="0" x2="806.75" y2="5" style="visibility: inherit;" fill="rgb(0, 0, 0)" stroke="rgb(204, 204, 204)" stroke-width="1px"></line><line x1="922" y1="0" x2="922" y2="5" style="visibility: inherit;" fill="rgb(0, 0, 0)" stroke="rgb(204, 204, 204)" stroke-width="1px"></line><line x1="1037.25" y1="0" x2="1037.25" y2="5" style="visibility: inherit;" fill="rgb(0, 0, 0)" stroke="rgb(204, 204, 204)" stroke-width="1px"></line><line x1="1152.5" y1="0" x2="1152.5" y2="5" style="visibility: inherit;" fill="rgb(0, 0, 0)" stroke="rgb(204, 204, 204)" stroke-width="1px"></line><line x1="1267.75" y1="0" x2="1267.75" y2="5" style="visibility: inherit;" fill="rgb(0, 0, 0)" stroke="rgb(204, 204, 204)" stroke-width="1px"></line><line x1="1383" y1="0" x2="1383" y2="5" style="visibility: inherit;" fill="rgb(0, 0, 0)" stroke="rgb(204, 204, 204)" stroke-width="1px"></line></g><g transform="translate(0, 8)"><text x="0" y="0" dx="0em" dy="0.95em" style="text-anchor: middle; visibility: hidden; font-family: &quot;Helvetica Neue&quot;, sans-serif; font-size: 12px; font-weight: 200;" fill="rgb(33, 33, 33)" stroke="none" stroke-width="1px">-20</text><text x="115.25" y="0" dx="0em" dy="0.95em" style="text-anchor: middle; visibility: inherit; font-family: &quot;Helvetica Neue&quot;, sans-serif; font-size: 12px; font-weight: 200;" fill="rgb(33, 33, 33)" stroke="none" stroke-width="1px">0</text><text x="230.5" y="0" dx="0em" dy="0.95em" style="text-anchor: middle; visibility: inherit; font-family: &quot;Helvetica Neue&quot;, sans-serif; font-size: 12px; font-weight: 200;" fill="rgb(33, 33, 33)" stroke="none" stroke-width="1px">20</text><text x="345.75" y="0" dx="0em" dy="0.95em" style="text-anchor: middle; visibility: inherit; font-family: &quot;Helvetica Neue&quot;, sans-serif; font-size: 12px; font-weight: 200;" fill="rgb(33, 33, 33)" stroke="none" stroke-width="1px">40</text><text x="461" y="0" dx="0em" dy="0.95em" style="text-anchor: middle; visibility: inherit; font-family: &quot;Helvetica Neue&quot;, sans-serif; font-size: 12px; font-weight: 200;" fill="rgb(33, 33, 33)" stroke="none" stroke-width="1px">60</text><text x="576.25" y="0" dx="0em" dy="0.95em" style="text-anchor: middle; visibility: inherit; font-family: &quot;Helvetica Neue&quot;, sans-serif; font-size: 12px; font-weight: 200;" fill="rgb(33, 33, 33)" stroke="none" stroke-width="1px">80</text><text x="691.5" y="0" dx="0em" dy="0.95em" style="text-anchor: middle; visibility: inherit; font-family: &quot;Helvetica Neue&quot;, sans-serif; font-size: 12px; font-weight: 200;" fill="rgb(33, 33, 33)" stroke="none" stroke-width="1px">100</text><text x="806.75" y="0" dx="0em" dy="0.95em" style="text-anchor: middle; visibility: inherit; font-family: &quot;Helvetica Neue&quot;, sans-serif; font-size: 12px; font-weight: 200;" fill="rgb(33, 33, 33)" stroke="none" stroke-width="1px">120</text><text x="922" y="0" dx="0em" dy="0.95em" style="text-anchor: middle; visibility: inherit; font-family: &quot;Helvetica Neue&quot;, sans-serif; font-size: 12px; font-weight: 200;" fill="rgb(33, 33, 33)" stroke="none" stroke-width="1px">140</text><text x="1037.25" y="0" dx="0em" dy="0.95em" style="text-anchor: middle; visibility: inherit; font-family: &quot;Helvetica Neue&quot;, sans-serif; font-size: 12px; font-weight: 200;" fill="rgb(33, 33, 33)" stroke="none" stroke-width="1px">160</text><text x="1152.5" y="0" dx="0em" dy="0.95em" style="text-anchor: middle; visibility: inherit; font-family: &quot;Helvetica Neue&quot;, sans-serif; font-size: 12px; font-weight: 200;" fill="rgb(33, 33, 33)" stroke="none" stroke-width="1px">180</text><text x="1267.75" y="0" dx="0em" dy="0.95em" style="text-anchor: middle; visibility: inherit; font-family: &quot;Helvetica Neue&quot;, sans-serif; font-size: 12px; font-weight: 200;" fill="rgb(33, 33, 33)" stroke="none" stroke-width="1px">200</text><text x="1383" y="0" dx="0em" dy="0.95em" style="text-anchor: middle; visibility: hidden; font-family: &quot;Helvetica Neue&quot;, sans-serif; font-size: 12px; font-weight: 200;" fill="rgb(33, 33, 33)" stroke="none" stroke-width="1px">220</text></g><line x1="0" y1="0" x2="1383" y2="0" fill="rgb(0, 0, 0)" stroke="rgb(204, 204, 204)" stroke-width="1px"></line></g></g></g></g></svg>